# xmcd
#
# Track frame offsets:
#	150
#	18565
#	33163
#	45086
#	55247
#	71474
#	85051
#	103580
#	116180
#	132094
#	149111
#	161915
#	180282
#	198670
#	216547
#	227580
#
# Disc length: 3170 seconds
#
# Revision: 0
# Processed by: cddbd v1.4PL0 Copyright (c) Steve Scherf et al.
# Submitted via: dBpowerAMP V4.0
#
DISCID=e20c6010
DTITLE=Various Artist - Tutto Italia - 60's and 70's Radio Succeso
DYEAR=2002
DGENRE=Musical
TTITLE0=Toto Cutugno - Solo Noi
TTITLE1=Nicola Di Bari - La Prima Cosa Bella
TTITLE2=Gianni Nazzaro - Quanto e Bella Lei
TTITLE3=Luigi Tenco - Ho Capito Che Ti Amo
TTITLE4=Domenico Modugno - Il Maestro Di Violino
TTITLE5=Loredana Perasso - E Se Domani
TTITLE6=Pino Donaggio - Pero Anoche en la Playa
TTITLE7=Sentieri - Quando Quando Quando
TTITLE8=Paolo Mengoli - Sapore Di Sale
TTITLE9=I Santo California - Tornero
TTITLE10=Dino - Gli Occhi Mei
TTITLE11=Loredana Perasso - Parole Parole
TTITLE12=Homo Sapiens - Bella Da Morire
TTITLE13=Sandro Giacobbe - Io Vorrei
TTITLE14=Mina - Come Prima
TTITLE15=Domenico Modugno - Piove, Ciao Ciao Bambina
EXTD=
EXTT0=
EXTT1=
EXTT2=
EXTT3=
EXTT4=
EXTT5=
EXTT6=
EXTT7=
EXTT8=
EXTT9=
EXTT10=
EXTT11=
EXTT12=
EXTT13=
EXTT14=
EXTT15=
PLAYORDER=
